<?xml version="1.0" encoding="UTF-8"?>
<!-- Created with Inkscape (http://www.inkscape.org/) -->
<svg width="210mm" height="297mm" version="1.1" viewBox="0 0 210 297" xml:space="preserve" xmlns="http://www.w3.org/2000/svg"><path d="m40.827 247.53c-9.421-9.1692-17.381-20.682-23.096-33.404-3.8785-8.6343-6.646-19.022-7.9652-29.898-0.8613-7.1006-0.95722-15.69-0.24669-22.089 1.4765-13.299 5.0573-25.187 10.919-36.251 13.663-25.79 36.717-42.454 62.648-45.282 3.8501-0.41996 10.83-0.4141 14.949 0.01254 27.992 2.8997 49.964 21.427 57.126 48.167 3.0602 11.426 3.4086 23.759 0.94559 33.469-4.0297 15.887-13.77 28.767-26.322 34.808-3.2391 1.5589-5.8236 2.458-9.274 3.2262-2.2758 0.50667-3.4026 0.58523-8.3208 0.58009-4.9311-5e-3 -6.0585-0.0867-8.4667-0.61233-8.1266-1.7738-13.898-4.858-18.918-10.11-2.6162-2.7371-4.2141-5.0896-5.9347-8.7372-2.0824-4.4148-3.0075-7.9947-3.5445-13.717-0.31018-3.3051-0.31083-3.3072-0.97184-3.2212-1.8737 0.2439-4.3234 4.0214-5.1773 7.9837-2.8719 13.326 4.6168 28.341 18.803 37.701 6.9087 4.5583 13.09 6.9856 20.912 8.2122 4.3772 0.68639 12.836 0.44297 17.385-0.50029 9.9117-2.0552 19.362-6.605 27.895-13.43 4.8871-3.9089 11.636-11.343 15.345-16.901 6.128-9.1852 10.509-19.726 12.811-30.824 1.4967-7.2161 1.6925-9.5018 1.6885-19.711-4e-3 -10.244-0.15123-11.958-1.7338-20.173-2.7955-14.512-9.6651-30.771-18.753-44.385-1.2143-1.819-2.5699-3.7703-3.0125-4.3363-1.4564-1.8622 0.0666-0.63866 3.143 2.5251 15.626 16.07 25.223 34.686 28.962 56.183 0.90982 5.2304 1.3633 10.212 1.5054 16.536 0.16027 7.1322-0.38604 13.393-1.7891 20.502-7.1615 36.287-33.362 64.84-65.447 71.322-9.4306 1.9053-18.563 1.932-28.195 0.0825-24.874-4.776-44.079-22.668-50.644-47.179-3.0602-11.426-3.4086-23.759-0.94559-33.469 4.0297-15.887 13.77-28.767 26.322-34.808 3.2391-1.5589 5.8235-2.458 9.274-3.2262 2.2758-0.50667 3.4026-0.58523 8.3208-0.58009 4.9311 5e-3 6.0585 0.0867 8.4667 0.61233 8.1266 1.7738 13.898 4.858 18.918 10.11 2.6162 2.7371 4.2141 5.0896 5.9347 8.7372 2.0824 4.4147 3.0075 7.9947 3.5445 13.717 0.31017 3.3051 0.31082 3.3072 0.97184 3.2212 1.8737-0.2439 4.3233-4.0214 5.1773-7.9837 2.8719-13.326-4.6169-28.341-18.803-37.701-6.9087-4.5583-13.09-6.9856-20.912-8.2122-4.3772-0.68639-12.836-0.44297-17.385 0.5003-27.357 5.6724-49.569 29.908-56.05 61.155-1.4967 7.2161-1.6925 9.5018-1.6885 19.711 3e-3 8.727 0.0619 10.033 0.60745 13.559 2.1403 13.831 5.5577 24.641 11.644 36.832 2.9351 5.8791 8.3631 14.814 11.219 18.468 1.2443 1.5918 0.56963 1.1555-1.8409-1.1906z" fill="none" stroke="#000" stroke-width="6.065"/></svg>
